# xmcd
#
# Track frame offsets:
#	150
#	51833
#	91754
#	165006
#	189683
#	222390
#
# Disc length: 3333 seconds
#
# Revision: 1
# Processed by: cddbd v1.5.2PL0 Copyright (c) Steve Scherf et al.
# Submitted via: audiograbber 1.83.01
#
DISCID=460d0306
DTITLE=Jack Bruce - Live At Zeche Bochum - CD2
DYEAR=1983
DGENRE=Blues-Rock
TTITLE0=Keep It Down
TTITLE1=First Time Met The Blues
TTITLE2=Bird Alone
TTITLE3=I´m So Glad
TTITLE4=Spoonful
TTITLE5=N.S.U.
EXTD=
EXTT0=
EXTT1=
EXTT2=
EXTT3=
EXTT4=
EXTT5=
PLAYORDER=
